<svg width="33" height="30" viewBox="0 0 33 30" fill="none" xmlns="http://www.w3.org/2000/svg">
<mask id="mask0_24_53" style="mask-type:luminance" maskUnits="userSpaceOnUse" x="0" y="0" width="33" height="30">
<path d="M32.5 0H0V29.5H32.5V0Z" fill="white"/>
</mask>
<g mask="url(#mask0_24_53)">
<path d="M16.25 2.65615C20.5918 2.65615 21.106 2.67344 22.8135 2.74258C24.4004 2.80595 25.2573 3.04795 25.8286 3.24961C26.584 3.51465 27.1299 3.8373 27.6948 4.35009C28.2661 4.86866 28.6152 5.3584 28.9073 6.04405C29.1294 6.56258 29.396 7.34618 29.4659 8.78086C29.542 10.3365 29.5611 10.8032 29.5611 14.7385C29.5611 18.6795 29.542 19.1462 29.4659 20.6961C29.396 22.1366 29.1294 22.9144 28.9073 23.4329C28.6152 24.1186 28.2598 24.6141 27.6948 25.1269C27.1236 25.6454 26.584 25.9623 25.8286 26.2273C25.2573 26.429 24.394 26.671 22.8135 26.7344C21.0996 26.8035 20.5854 26.8208 16.25 26.8208C11.9082 26.8208 11.394 26.8035 9.68656 26.7344C8.09961 26.671 7.24269 26.429 6.67139 26.2273C5.91602 25.9623 5.37012 25.6397 4.80518 25.1269C4.23389 24.6083 3.88477 24.1186 3.59277 23.4329C3.37061 22.9144 3.10401 22.1308 3.03418 20.6961C2.95801 19.1405 2.93897 18.6737 2.93897 14.7385C2.93897 10.7975 2.95801 10.3308 3.03418 8.78086C3.10401 7.3404 3.37061 6.56258 3.59277 6.04405C3.88477 5.3584 4.24023 4.86289 4.80518 4.35009C5.37647 3.83155 5.91602 3.51465 6.67139 3.24961C7.24269 3.04795 8.10597 2.80595 9.68656 2.74258C11.394 2.67344 11.9082 2.65615 16.25 2.65615ZM16.25 0C11.8384 0 11.2862 0.0172852 9.55324 0.0864258C7.82668 0.155566 6.63965 0.409082 5.61133 0.77207C4.53858 1.15234 3.63086 1.65361 2.72949 2.47754C1.82178 3.2957 1.26953 4.11963 0.850586 5.0876C0.450684 6.02676 0.171387 7.09844 0.0952148 8.66562C0.019043 10.2443 0 10.7456 0 14.75C0 18.7544 0.019043 19.2557 0.0952148 20.8286C0.171387 22.3958 0.450684 23.4733 0.850586 24.4066C1.26953 25.3804 1.82178 26.2043 2.72949 27.0225C3.63086 27.8406 4.53858 28.3477 5.60498 28.7222C6.63965 29.0852 7.82031 29.3387 9.54688 29.4078C11.2798 29.477 11.832 29.4942 16.2436 29.4942C20.6553 29.4942 21.2075 29.477 22.9405 29.4078C24.667 29.3387 25.854 29.0852 26.8823 28.7222C27.9487 28.3477 28.8565 27.8406 29.7578 27.0225C30.6592 26.2043 31.2178 25.3804 31.6304 24.4124C32.0303 23.4733 32.3096 22.4016 32.3858 20.8344C32.4619 19.2614 32.481 18.7602 32.481 14.7558C32.481 10.7514 32.4619 10.2501 32.3858 8.67718C32.3096 7.10999 32.0303 6.03252 31.6304 5.09912C31.2305 4.11963 30.6782 3.2957 29.7705 2.47754C28.8691 1.65937 27.9614 1.15234 26.895 0.777829C25.8604 0.414844 24.6797 0.161328 22.9531 0.0921875C21.2139 0.0172852 20.6616 0 16.25 0Z" fill="white"/>
<path d="M16.25 7.17334C11.6416 7.17334 7.90285 10.567 7.90285 14.75C7.90285 18.933 11.6416 22.3266 16.25 22.3266C20.8584 22.3266 24.5971 18.933 24.5971 14.75C24.5971 10.567 20.8584 7.17334 16.25 7.17334ZM16.25 19.6647C13.2603 19.6647 10.8354 17.4637 10.8354 14.75C10.8354 12.0362 13.2603 9.83522 16.25 9.83522C19.2397 9.83522 21.6646 12.0362 21.6646 14.75C21.6646 17.4637 19.2397 19.6647 16.25 19.6647Z" fill="white"/>
<path d="M26.8759 6.87371C26.8759 7.85323 26 8.64254 24.9272 8.64254C23.8482 8.64254 22.9785 7.84745 22.9785 6.87371C22.9785 5.89422 23.8545 5.10486 24.9272 5.10486C26 5.10486 26.8759 5.89998 26.8759 6.87371Z" fill="white"/>
</g>
</svg>
