<svg width="27" height="26" viewBox="0 0 27 26" fill="none" xmlns="http://www.w3.org/2000/svg">
<path d="M0.000137329 9.76683V21.9417C0.000137329 24.1873 1.90434 26 4.26338 26H22.7368C25.0958 26 27 24.1873 27 21.9417V9.76683C27 8.26528 26.1474 6.95307 24.8684 6.2495L13.4997 0L2.13159 6.2495C0.852489 6.95307 0 8.26528 0 9.76683M24.5558 7.69717L13.4998 14.5015L2.4438 7.69717L13.4998 1.55561L24.5558 7.69717ZM13.4998 16.1383L25.3939 8.79267C25.5076 9.09046 25.5787 9.42852 25.5787 9.76683V21.9417C25.5787 23.4299 24.2999 24.6472 22.7366 24.6472H4.26321C2.69986 24.6472 1.42109 23.4298 1.42109 21.9417V9.76683C1.42109 9.42851 1.49197 9.09046 1.60567 8.79267L13.4998 16.1383Z" fill="white"/>
</svg>
