<svg width="19" height="150" viewBox="0 0 19 150" fill="none" xmlns="http://www.w3.org/2000/svg">
<path d="M0 74.6667C0 77.142 0.987722 79.516 2.74588 81.2663C4.50403 83.0167 6.8886 84 9.375 84C11.8614 84 14.246 83.0167 16.0041 81.2663C17.7623 79.516 18.75 77.142 18.75 74.6667C18.75 72.1913 17.7623 69.8173 16.0041 68.067C14.246 66.3167 11.8614 65.3333 9.375 65.3333C6.8886 65.3333 4.50403 66.3167 2.74588 68.067C0.987722 69.8173 0 72.1913 0 74.6667ZM0 140C0 142.475 0.987722 144.849 2.74588 146.6C4.50403 148.35 6.8886 149.333 9.375 149.333C11.8614 149.333 14.246 148.35 16.0041 146.6C17.7623 144.849 18.75 142.475 18.75 140C18.75 137.525 17.7623 135.151 16.0041 133.4C14.246 131.65 11.8614 130.667 9.375 130.667C6.8886 130.667 4.50403 131.65 2.74588 133.4C0.987722 135.151 0 137.525 0 140ZM0 9.33333C0 11.8087 0.987722 14.1827 2.74588 15.933C4.50403 17.6833 6.8886 18.6667 9.375 18.6667C11.8614 18.6667 14.246 17.6833 16.0041 15.933C17.7623 14.1827 18.75 11.8087 18.75 9.33333C18.75 6.85798 17.7623 4.48401 16.0041 2.73367C14.246 0.983332 11.8614 0 9.375 0C6.8886 0 4.50403 0.983332 2.74588 2.73367C0.987722 4.48401 0 6.85798 0 9.33333Z" stroke="white" stroke-width="2" stroke-linecap="round" stroke-linejoin="round"/>
</svg>
